<svg width="244" height="16" viewBox="0 0 244 16" fill="none" xmlns="http://www.w3.org/2000/svg">
<path d="M5.084 12.192C3.65467 12.192 2.53467 11.7067 1.724 10.736C0.913333 9.75467 0.508 8.31467 0.508 6.416C0.508 4.51733 0.913333 3.08267 1.724 2.112C2.53467 1.13067 3.65467 0.639999 5.084 0.639999C6.50267 0.639999 7.61733 1.13067 8.428 2.112C9.23867 3.09333 9.644 4.528 9.644 6.416C9.644 8.304 9.23867 9.73867 8.428 10.72C7.61733 11.7013 6.50267 12.192 5.084 12.192ZM5.084 11.328C5.61733 11.328 6.09733 11.2373 6.524 11.056C6.96133 10.864 7.33467 10.5867 7.644 10.224C7.95333 9.86133 8.19333 9.41867 8.364 8.896C8.53467 8.37333 8.62 7.78133 8.62 7.12V5.712C8.62 5.05067 8.53467 4.45867 8.364 3.936C8.19333 3.41333 7.95333 2.976 7.644 2.624C7.33467 2.26133 6.96133 1.984 6.524 1.792C6.09733 1.6 5.61733 1.504 5.084 1.504C4.55067 1.504 4.06533 1.6 3.628 1.792C3.19067 1.984 2.81733 2.26133 2.508 2.624C2.19867 2.976 1.95867 3.41333 1.788 3.936C1.61733 4.45867 1.532 5.05067 1.532 5.712V7.12C1.532 7.78133 1.61733 8.37333 1.788 8.896C1.95867 9.41867 2.19867 9.86133 2.508 10.224C2.81733 10.5867 3.19067 10.864 3.628 11.056C4.06533 11.2373 4.55067 11.328 5.084 11.328ZM15.9255 3.808H16.8375V5.12H16.8855C17.0882 4.66133 17.3975 4.29867 17.8135 4.032C18.2295 3.75467 18.7522 3.616 19.3815 3.616C20.4375 3.616 21.2642 3.98933 21.8615 4.736C22.4588 5.48267 22.7575 6.53867 22.7575 7.904C22.7575 9.26933 22.4588 10.3253 21.8615 11.072C21.2642 11.8187 20.4375 12.192 19.3815 12.192C18.7522 12.192 18.2348 12.0587 17.8295 11.792C17.4242 11.5147 17.1095 11.1467 16.8855 10.688H16.8375V15.2H15.9255V3.808ZM19.1735 11.376C19.9948 11.376 20.6348 11.1147 21.0935 10.592C21.5522 10.0693 21.7815 9.36533 21.7815 8.48V7.328C21.7815 6.44267 21.5522 5.73867 21.0935 5.216C20.6348 4.69333 19.9948 4.432 19.1735 4.432C18.8535 4.432 18.5495 4.48 18.2615 4.576C17.9842 4.66133 17.7388 4.784 17.5255 4.944C17.3122 5.104 17.1415 5.296 17.0135 5.52C16.8962 5.744 16.8375 5.98933 16.8375 6.256V9.504C16.8375 9.792 16.8962 10.0533 17.0135 10.288C17.1415 10.512 17.3122 10.7093 17.5255 10.88C17.7388 11.04 17.9842 11.1627 18.2615 11.248C18.5495 11.3333 18.8535 11.376 19.1735 11.376ZM25.113 12V3.808H26.025V5.28H26.089C26.249 4.896 26.521 4.55467 26.905 4.256C27.289 3.95733 27.833 3.808 28.537 3.808H29.081V4.704H28.361C27.6783 4.704 27.1183 4.85333 26.681 5.152C26.2437 5.45067 26.025 5.86667 26.025 6.4V12H25.113ZM33.6969 12.192C33.1529 12.192 32.6622 12.096 32.2249 11.904C31.7875 11.712 31.4142 11.4347 31.1049 11.072C30.7955 10.6987 30.5555 10.2453 30.3849 9.712C30.2142 9.17867 30.1289 8.576 30.1289 7.904C30.1289 7.232 30.2142 6.63467 30.3849 6.112C30.5555 5.57867 30.7955 5.13067 31.1049 4.768C31.4142 4.39467 31.7875 4.112 32.2249 3.92C32.6622 3.71733 33.1529 3.616 33.6969 3.616C34.2409 3.616 34.7315 3.71733 35.1689 3.92C35.6062 4.112 35.9795 4.39467 36.2889 4.768C36.5982 5.13067 36.8382 5.57867 37.0089 6.112C37.1795 6.63467 37.2649 7.232 37.2649 7.904C37.2649 8.576 37.1795 9.17867 37.0089 9.712C36.8382 10.2453 36.5982 10.6987 36.2889 11.072C35.9795 11.4347 35.6062 11.712 35.1689 11.904C34.7315 12.096 34.2409 12.192 33.6969 12.192ZM33.6969 11.376C34.4969 11.376 35.1262 11.1253 35.5849 10.624C36.0542 10.1227 36.2889 9.38667 36.2889 8.416V7.392C36.2889 6.432 36.0542 5.70133 35.5849 5.2C35.1262 4.688 34.4969 4.432 33.6969 4.432C32.8969 4.432 32.2622 4.68267 31.7929 5.184C31.3342 5.68533 31.1049 6.42133 31.1049 7.392V8.416C31.1049 9.376 31.3342 10.112 31.7929 10.624C32.2622 11.1253 32.8969 11.376 33.6969 11.376ZM39.5818 3.808H40.4938V13.84C40.4938 14.256 40.3924 14.5867 40.1898 14.832C39.9871 15.0773 39.6618 15.2 39.2138 15.2H38.2218V14.4H39.5818V3.808ZM40.0298 1.584C39.8164 1.584 39.6564 1.53067 39.5498 1.424C39.4538 1.31733 39.4058 1.17867 39.4058 1.008V0.848C39.4058 0.677333 39.4538 0.538666 39.5498 0.431999C39.6564 0.325333 39.8164 0.271999 40.0298 0.271999C40.2431 0.271999 40.3978 0.325333 40.4938 0.431999C40.6004 0.538666 40.6538 0.677333 40.6538 0.848V1.008C40.6538 1.17867 40.6004 1.31733 40.4938 1.424C40.3978 1.53067 40.2431 1.584 40.0298 1.584ZM46.4004 12.192C45.8564 12.192 45.3604 12.096 44.9124 11.904C44.475 11.712 44.0964 11.4347 43.7764 11.072C43.467 10.6987 43.227 10.2453 43.0564 9.712C42.8964 9.17867 42.8164 8.576 42.8164 7.904C42.8164 7.232 42.8964 6.63467 43.0564 6.112C43.227 5.57867 43.467 5.13067 43.7764 4.768C44.0964 4.39467 44.475 4.112 44.9124 3.92C45.3497 3.71733 45.8404 3.616 46.3844 3.616C46.907 3.616 47.3817 3.71733 47.8084 3.92C48.235 4.112 48.5977 4.384 48.8964 4.736C49.195 5.088 49.4244 5.51467 49.5844 6.016C49.755 6.50667 49.8404 7.05067 49.8404 7.648V8.08H43.7764V8.48C43.7764 8.90667 43.835 9.30133 43.9524 9.664C44.0804 10.016 44.2564 10.32 44.4804 10.576C44.715 10.832 44.9977 11.0347 45.3284 11.184C45.659 11.3227 46.0324 11.392 46.4484 11.392C47.643 11.392 48.4697 10.8427 48.9284 9.744L49.6004 10.192C49.3444 10.8 48.939 11.2853 48.3844 11.648C47.8404 12.0107 47.179 12.192 46.4004 12.192ZM46.3844 4.384C45.9897 4.384 45.6324 4.45867 45.3124 4.608C44.9924 4.74667 44.715 4.944 44.4804 5.2C44.2564 5.456 44.0804 5.76533 43.9524 6.128C43.835 6.48 43.7764 6.86933 43.7764 7.296V7.376H48.8484V7.248C48.8484 6.82133 48.7897 6.432 48.6724 6.08C48.555 5.71733 48.3844 5.41333 48.1604 5.168C47.947 4.92267 47.6857 4.73067 47.3764 4.592C47.0777 4.45333 46.747 4.384 46.3844 4.384ZM53.5679 12C53.2372 12 52.9865 11.9093 52.8159 11.728C52.6452 11.5467 52.5599 11.3013 52.5599 10.992V4.608H51.1359V3.808H52.0639C52.2879 3.808 52.4372 3.76533 52.5119 3.68C52.5972 3.584 52.6399 3.41867 52.6399 3.184V1.52H53.4719V3.808H55.3279V4.608H53.4719V11.2H55.1999V12H53.5679ZM60.3688 12.192C59.8248 12.192 59.3341 12.096 58.8968 11.904C58.4594 11.712 58.0861 11.4347 57.7768 11.072C57.4674 10.6987 57.2274 10.2453 57.0568 9.712C56.8861 9.17867 56.8008 8.576 56.8008 7.904C56.8008 7.232 56.8861 6.63467 57.0568 6.112C57.2274 5.57867 57.4674 5.13067 57.7768 4.768C58.0861 4.39467 58.4594 4.112 58.8968 3.92C59.3341 3.71733 59.8248 3.616 60.3688 3.616C60.9128 3.616 61.4034 3.71733 61.8408 3.92C62.2781 4.112 62.6514 4.39467 62.9608 4.768C63.2701 5.13067 63.5101 5.57867 63.6808 6.112C63.8514 6.63467 63.9368 7.232 63.9368 7.904C63.9368 8.576 63.8514 9.17867 63.6808 9.712C63.5101 10.2453 63.2701 10.6987 62.9608 11.072C62.6514 11.4347 62.2781 11.712 61.8408 11.904C61.4034 12.096 60.9128 12.192 60.3688 12.192ZM60.3688 11.376C61.1688 11.376 61.7981 11.1253 62.2568 10.624C62.7261 10.1227 62.9608 9.38667 62.9608 8.416V7.392C62.9608 6.432 62.7261 5.70133 62.2568 5.2C61.7981 4.688 61.1688 4.432 60.3688 4.432C59.5688 4.432 58.9341 4.68267 58.4648 5.184C58.0061 5.68533 57.7768 6.42133 57.7768 7.392V8.416C57.7768 9.376 58.0061 10.112 58.4648 10.624C58.9341 11.1253 59.5688 11.376 60.3688 11.376ZM75.3309 10.688H75.2829C75.0695 11.1467 74.7549 11.5147 74.3389 11.792C73.9335 12.0587 73.4162 12.192 72.7869 12.192C71.7309 12.192 70.9042 11.8187 70.3069 11.072C69.7095 10.3253 69.4109 9.26933 69.4109 7.904C69.4109 6.53867 69.7095 5.48267 70.3069 4.736C70.9042 3.98933 71.7309 3.616 72.7869 3.616C73.4162 3.616 73.9389 3.75467 74.3549 4.032C74.7709 4.29867 75.0802 4.66133 75.2829 5.12H75.3309V0.16H76.2429V12H75.3309V10.688ZM72.9949 11.376C73.3149 11.376 73.6135 11.3333 73.8909 11.248C74.1789 11.1627 74.4295 11.04 74.6429 10.88C74.8562 10.7093 75.0215 10.512 75.1389 10.288C75.2669 10.0533 75.3309 9.792 75.3309 9.504V6.256C75.3309 5.98933 75.2669 5.744 75.1389 5.52C75.0215 5.296 74.8562 5.104 74.6429 4.944C74.4295 4.784 74.1789 4.66133 73.8909 4.576C73.6135 4.48 73.3149 4.432 72.9949 4.432C72.1735 4.432 71.5335 4.69333 71.0749 5.216C70.6162 5.73867 70.3869 6.44267 70.3869 7.328V8.48C70.3869 9.36533 70.6162 10.0693 71.0749 10.592C71.5335 11.1147 72.1735 11.376 72.9949 11.376ZM82.1504 12.192C81.6064 12.192 81.1104 12.096 80.6624 11.904C80.225 11.712 79.8464 11.4347 79.5264 11.072C79.217 10.6987 78.977 10.2453 78.8064 9.712C78.6464 9.17867 78.5664 8.576 78.5664 7.904C78.5664 7.232 78.6464 6.63467 78.8064 6.112C78.977 5.57867 79.217 5.13067 79.5264 4.768C79.8464 4.39467 80.225 4.112 80.6624 3.92C81.0997 3.71733 81.5904 3.616 82.1344 3.616C82.657 3.616 83.1317 3.71733 83.5584 3.92C83.985 4.112 84.3477 4.384 84.6464 4.736C84.945 5.088 85.1744 5.51467 85.3344 6.016C85.505 6.50667 85.5904 7.05067 85.5904 7.648V8.08H79.5264V8.48C79.5264 8.90667 79.585 9.30133 79.7024 9.664C79.8304 10.016 80.0064 10.32 80.2304 10.576C80.465 10.832 80.7477 11.0347 81.0784 11.184C81.409 11.3227 81.7824 11.392 82.1984 11.392C83.393 11.392 84.2197 10.8427 84.6784 9.744L85.3504 10.192C85.0944 10.8 84.689 11.2853 84.1344 11.648C83.5904 12.0107 82.929 12.192 82.1504 12.192ZM82.1344 4.384C81.7397 4.384 81.3824 4.45867 81.0624 4.608C80.7424 4.74667 80.465 4.944 80.2304 5.2C80.0064 5.456 79.8304 5.76533 79.7024 6.128C79.585 6.48 79.5264 6.86933 79.5264 7.296V7.376H84.5984V7.248C84.5984 6.82133 84.5397 6.432 84.4224 6.08C84.305 5.71733 84.1344 5.41333 83.9104 5.168C83.697 4.92267 83.4357 4.73067 83.1264 4.592C82.8277 4.45333 82.497 4.384 82.1344 4.384ZM91.6911 12V3.808H92.6031V5.28H92.6671C92.8271 4.896 93.0991 4.55467 93.4831 4.256C93.8671 3.95733 94.4111 3.808 95.1151 3.808H95.6591V4.704H94.9391C94.2565 4.704 93.6965 4.85333 93.2591 5.152C92.8218 5.45067 92.6031 5.86667 92.6031 6.4V12H91.6911ZM100.291 12.192C99.747 12.192 99.251 12.096 98.803 11.904C98.3657 11.712 97.987 11.4347 97.667 11.072C97.3577 10.6987 97.1177 10.2453 96.947 9.712C96.787 9.17867 96.707 8.576 96.707 7.904C96.707 7.232 96.787 6.63467 96.947 6.112C97.1177 5.57867 97.3577 5.13067 97.667 4.768C97.987 4.39467 98.3657 4.112 98.803 3.92C99.2403 3.71733 99.731 3.616 100.275 3.616C100.798 3.616 101.272 3.71733 101.699 3.92C102.126 4.112 102.488 4.384 102.787 4.736C103.086 5.088 103.315 5.51467 103.475 6.016C103.646 6.50667 103.731 7.05067 103.731 7.648V8.08H97.667V8.48C97.667 8.90667 97.7257 9.30133 97.843 9.664C97.971 10.016 98.147 10.32 98.371 10.576C98.6057 10.832 98.8883 11.0347 99.219 11.184C99.5497 11.3227 99.923 11.392 100.339 11.392C101.534 11.392 102.36 10.8427 102.819 9.744L103.491 10.192C103.235 10.8 102.83 11.2853 102.275 11.648C101.731 12.0107 101.07 12.192 100.291 12.192ZM100.275 4.384C99.8803 4.384 99.523 4.45867 99.203 4.608C98.883 4.74667 98.6057 4.944 98.371 5.2C98.147 5.456 97.971 5.76533 97.843 6.128C97.7257 6.48 97.667 6.86933 97.667 7.296V7.376H102.739V7.248C102.739 6.82133 102.68 6.432 102.563 6.08C102.446 5.71733 102.275 5.41333 102.051 5.168C101.838 4.92267 101.576 4.73067 101.267 4.592C100.968 4.45333 100.638 4.384 100.275 4.384ZM111.347 10.688H111.299C111.085 11.1467 110.771 11.5147 110.355 11.792C109.949 12.0587 109.432 12.192 108.803 12.192C107.747 12.192 106.92 11.8187 106.323 11.072C105.725 10.3253 105.427 9.26933 105.427 7.904C105.427 6.53867 105.725 5.48267 106.323 4.736C106.92 3.98933 107.747 3.616 108.803 3.616C109.432 3.616 109.955 3.75467 110.371 4.032C110.787 4.29867 111.096 4.66133 111.299 5.12H111.347V0.16H112.259V12H111.347V10.688ZM109.011 11.376C109.331 11.376 109.629 11.3333 109.907 11.248C110.195 11.1627 110.445 11.04 110.659 10.88C110.872 10.7093 111.037 10.512 111.155 10.288C111.283 10.0533 111.347 9.792 111.347 9.504V6.256C111.347 5.98933 111.283 5.744 111.155 5.52C111.037 5.296 110.872 5.104 110.659 4.944C110.445 4.784 110.195 4.66133 109.907 4.576C109.629 4.48 109.331 4.432 109.011 4.432C108.189 4.432 107.549 4.69333 107.091 5.216C106.632 5.73867 106.403 6.44267 106.403 7.328V8.48C106.403 9.36533 106.632 10.0693 107.091 10.592C107.549 11.1147 108.189 11.376 109.011 11.376ZM118.166 12.192C117.622 12.192 117.126 12.096 116.678 11.904C116.241 11.712 115.862 11.4347 115.542 11.072C115.233 10.6987 114.993 10.2453 114.822 9.712C114.662 9.17867 114.582 8.576 114.582 7.904C114.582 7.232 114.662 6.63467 114.822 6.112C114.993 5.57867 115.233 5.13067 115.542 4.768C115.862 4.39467 116.241 4.112 116.678 3.92C117.115 3.71733 117.606 3.616 118.15 3.616C118.673 3.616 119.147 3.71733 119.574 3.92C120.001 4.112 120.363 4.384 120.662 4.736C120.961 5.088 121.19 5.51467 121.35 6.016C121.521 6.50667 121.606 7.05067 121.606 7.648V8.08H115.542V8.48C115.542 8.90667 115.601 9.30133 115.718 9.664C115.846 10.016 116.022 10.32 116.246 10.576C116.481 10.832 116.763 11.0347 117.094 11.184C117.425 11.3227 117.798 11.392 118.214 11.392C119.409 11.392 120.235 10.8427 120.694 9.744L121.366 10.192C121.11 10.8 120.705 11.2853 120.15 11.648C119.606 12.0107 118.945 12.192 118.166 12.192ZM118.15 4.384C117.755 4.384 117.398 4.45867 117.078 4.608C116.758 4.74667 116.481 4.944 116.246 5.2C116.022 5.456 115.846 5.76533 115.718 6.128C115.601 6.48 115.542 6.86933 115.542 7.296V7.376H120.614V7.248C120.614 6.82133 120.555 6.432 120.438 6.08C120.321 5.71733 120.15 5.41333 119.926 5.168C119.713 4.92267 119.451 4.73067 119.142 4.592C118.843 4.45333 118.513 4.384 118.15 4.384ZM130.027 12.192C129.312 12.192 128.699 12.0587 128.187 11.792C127.685 11.5253 127.248 11.136 126.875 10.624L127.547 10.096C127.888 10.544 128.261 10.8747 128.667 11.088C129.072 11.3013 129.547 11.408 130.091 11.408C130.72 11.408 131.205 11.2747 131.547 11.008C131.888 10.7413 132.059 10.3573 132.059 9.856C132.059 9.41867 131.925 9.07733 131.659 8.832C131.403 8.576 130.976 8.40533 130.379 8.32L129.707 8.208C129.333 8.15467 128.992 8.07467 128.683 7.968C128.373 7.86133 128.107 7.71733 127.883 7.536C127.669 7.35467 127.499 7.136 127.371 6.88C127.253 6.61333 127.195 6.29333 127.195 5.92C127.195 5.536 127.264 5.2 127.403 4.912C127.552 4.624 127.749 4.384 127.995 4.192C128.24 4 128.533 3.856 128.875 3.76C129.216 3.664 129.584 3.616 129.979 3.616C130.661 3.616 131.221 3.73333 131.659 3.968C132.096 4.20267 132.469 4.50667 132.779 4.88L132.171 5.44C131.957 5.184 131.669 4.94933 131.307 4.736C130.955 4.512 130.496 4.4 129.931 4.4C129.344 4.4 128.885 4.528 128.555 4.784C128.235 5.04 128.075 5.40267 128.075 5.872C128.075 6.352 128.219 6.69867 128.507 6.912C128.805 7.12533 129.248 7.28 129.835 7.376L130.491 7.472C131.323 7.6 131.936 7.85067 132.331 8.224C132.736 8.58667 132.939 9.09867 132.939 9.76C132.939 10.528 132.677 11.1253 132.155 11.552C131.643 11.9787 130.933 12.192 130.027 12.192ZM138.244 12.192C137.7 12.192 137.209 12.096 136.772 11.904C136.334 11.712 135.961 11.4347 135.652 11.072C135.342 10.6987 135.102 10.2453 134.932 9.712C134.761 9.17867 134.676 8.576 134.676 7.904C134.676 7.232 134.761 6.63467 134.932 6.112C135.102 5.57867 135.342 5.13067 135.652 4.768C135.961 4.39467 136.334 4.112 136.772 3.92C137.209 3.71733 137.7 3.616 138.244 3.616C138.788 3.616 139.278 3.71733 139.716 3.92C140.153 4.112 140.526 4.39467 140.836 4.768C141.145 5.13067 141.385 5.57867 141.556 6.112C141.726 6.63467 141.812 7.232 141.812 7.904C141.812 8.576 141.726 9.17867 141.556 9.712C141.385 10.2453 141.145 10.6987 140.836 11.072C140.526 11.4347 140.153 11.712 139.716 11.904C139.278 12.096 138.788 12.192 138.244 12.192ZM138.244 11.376C139.044 11.376 139.673 11.1253 140.132 10.624C140.601 10.1227 140.836 9.38667 140.836 8.416V7.392C140.836 6.432 140.601 5.70133 140.132 5.2C139.673 4.688 139.044 4.432 138.244 4.432C137.444 4.432 136.809 4.68267 136.34 5.184C135.881 5.68533 135.652 6.42133 135.652 7.392V8.416C135.652 9.376 135.881 10.112 136.34 10.624C136.809 11.1253 137.444 11.376 138.244 11.376ZM147.009 12.192C145.878 12.192 145.003 11.8187 144.385 11.072C143.777 10.3253 143.473 9.26933 143.473 7.904C143.473 6.53867 143.777 5.48267 144.385 4.736C145.003 3.98933 145.878 3.616 147.009 3.616C147.766 3.616 148.379 3.78133 148.849 4.112C149.318 4.44267 149.675 4.88 149.921 5.424L149.153 5.808C148.961 5.36 148.689 5.01867 148.337 4.784C147.995 4.54933 147.553 4.432 147.009 4.432C146.177 4.432 145.542 4.69867 145.105 5.232C144.667 5.76533 144.449 6.464 144.449 7.328V8.48C144.449 9.344 144.667 10.0427 145.105 10.576C145.542 11.1093 146.177 11.376 147.009 11.376C147.574 11.376 148.049 11.2533 148.433 11.008C148.817 10.7627 149.126 10.4107 149.361 9.952L150.033 10.4C149.766 10.944 149.382 11.3813 148.881 11.712C148.39 12.032 147.766 12.192 147.009 12.192ZM152.514 1.584C152.301 1.584 152.141 1.53067 152.034 1.424C151.938 1.31733 151.89 1.17867 151.89 1.008V0.848C151.89 0.677333 151.938 0.538666 152.034 0.431999C152.141 0.325333 152.301 0.271999 152.514 0.271999C152.727 0.271999 152.882 0.325333 152.978 0.431999C153.085 0.538666 153.138 0.677333 153.138 0.848V1.008C153.138 1.17867 153.085 1.31733 152.978 1.424C152.882 1.53067 152.727 1.584 152.514 1.584ZM152.066 3.808H152.978V12H152.066V3.808ZM161.589 12C161.237 12 160.981 11.9093 160.821 11.728C160.661 11.5467 160.57 11.3013 160.549 10.992V10.704H160.469C160.287 11.1627 159.989 11.5253 159.573 11.792C159.157 12.0587 158.629 12.192 157.989 12.192C157.125 12.192 156.458 11.984 155.989 11.568C155.519 11.1413 155.285 10.544 155.285 9.776C155.285 9.05067 155.541 8.47467 156.053 8.048C156.575 7.62133 157.429 7.408 158.613 7.408H160.501V6.448C160.501 5.09333 159.802 4.416 158.405 4.416C157.861 4.416 157.407 4.53333 157.045 4.768C156.682 4.992 156.389 5.31733 156.165 5.744L155.589 5.264C155.813 4.784 156.154 4.38933 156.613 4.08C157.082 3.77067 157.69 3.616 158.437 3.616C159.397 3.616 160.133 3.856 160.645 4.336C161.157 4.816 161.413 5.488 161.413 6.352V11.2H162.517V12H161.589ZM158.117 11.408C158.447 11.408 158.757 11.3653 159.045 11.28C159.333 11.1947 159.583 11.0773 159.797 10.928C160.021 10.768 160.191 10.5813 160.309 10.368C160.437 10.144 160.501 9.89333 160.501 9.616V8.096H158.581C157.759 8.096 157.162 8.22933 156.789 8.496C156.426 8.752 156.245 9.10933 156.245 9.568V9.952C156.245 10.432 156.415 10.7947 156.757 11.04C157.098 11.2853 157.551 11.408 158.117 11.408ZM165.402 12C165.072 12 164.821 11.9093 164.65 11.728C164.48 11.5467 164.394 11.3067 164.394 11.008V0.16H165.306V11.2H166.57V12H165.402ZM177.69 10.688H177.642C177.429 11.1467 177.114 11.5147 176.698 11.792C176.293 12.0587 175.776 12.192 175.146 12.192C174.09 12.192 173.264 11.8187 172.666 11.072C172.069 10.3253 171.77 9.26933 171.77 7.904C171.77 6.53867 172.069 5.48267 172.666 4.736C173.264 3.98933 174.09 3.616 175.146 3.616C175.776 3.616 176.298 3.75467 176.714 4.032C177.13 4.29867 177.44 4.66133 177.642 5.12H177.69V0.16H178.602V12H177.69V10.688ZM175.354 11.376C175.674 11.376 175.973 11.3333 176.25 11.248C176.538 11.1627 176.789 11.04 177.002 10.88C177.216 10.7093 177.381 10.512 177.498 10.288C177.626 10.0533 177.69 9.792 177.69 9.504V6.256C177.69 5.98933 177.626 5.744 177.498 5.52C177.381 5.296 177.216 5.104 177.002 4.944C176.789 4.784 176.538 4.66133 176.25 4.576C175.973 4.48 175.674 4.432 175.354 4.432C174.533 4.432 173.893 4.69333 173.434 5.216C172.976 5.73867 172.746 6.44267 172.746 7.328V8.48C172.746 9.36533 172.976 10.0693 173.434 10.592C173.893 11.1147 174.533 11.376 175.354 11.376ZM187.214 12C186.862 12 186.606 11.9093 186.446 11.728C186.286 11.5467 186.195 11.3013 186.174 10.992V10.704H186.094C185.912 11.1627 185.614 11.5253 185.198 11.792C184.782 12.0587 184.254 12.192 183.614 12.192C182.75 12.192 182.083 11.984 181.614 11.568C181.144 11.1413 180.91 10.544 180.91 9.776C180.91 9.05067 181.166 8.47467 181.678 8.048C182.2 7.62133 183.054 7.408 184.238 7.408H186.126V6.448C186.126 5.09333 185.427 4.416 184.03 4.416C183.486 4.416 183.032 4.53333 182.67 4.768C182.307 4.992 182.014 5.31733 181.79 5.744L181.214 5.264C181.438 4.784 181.779 4.38933 182.238 4.08C182.707 3.77067 183.315 3.616 184.062 3.616C185.022 3.616 185.758 3.856 186.27 4.336C186.782 4.816 187.038 5.488 187.038 6.352V11.2H188.142V12H187.214ZM183.742 11.408C184.072 11.408 184.382 11.3653 184.67 11.28C184.958 11.1947 185.208 11.0773 185.422 10.928C185.646 10.768 185.816 10.5813 185.934 10.368C186.062 10.144 186.126 9.89333 186.126 9.616V8.096H184.206C183.384 8.096 182.787 8.22933 182.414 8.496C182.051 8.752 181.87 9.10933 181.87 9.568V9.952C181.87 10.432 182.04 10.7947 182.382 11.04C182.723 11.2853 183.176 11.408 183.742 11.408ZM193.897 12V0.832H194.857V11.152H199.785V12H193.897ZM207.276 12C206.924 12 206.668 11.9093 206.508 11.728C206.348 11.5467 206.258 11.3013 206.236 10.992V10.704H206.156C205.975 11.1627 205.676 11.5253 205.26 11.792C204.844 12.0587 204.316 12.192 203.676 12.192C202.812 12.192 202.146 11.984 201.676 11.568C201.207 11.1413 200.972 10.544 200.972 9.776C200.972 9.05067 201.228 8.47467 201.74 8.048C202.263 7.62133 203.116 7.408 204.3 7.408H206.188V6.448C206.188 5.09333 205.49 4.416 204.092 4.416C203.548 4.416 203.095 4.53333 202.732 4.768C202.37 4.992 202.076 5.31733 201.852 5.744L201.276 5.264C201.5 4.784 201.842 4.38933 202.3 4.08C202.77 3.77067 203.378 3.616 204.124 3.616C205.084 3.616 205.82 3.856 206.332 4.336C206.844 4.816 207.1 5.488 207.1 6.352V11.2H208.204V12H207.276ZM203.804 11.408C204.135 11.408 204.444 11.3653 204.732 11.28C205.02 11.1947 205.271 11.0773 205.484 10.928C205.708 10.768 205.879 10.5813 205.996 10.368C206.124 10.144 206.188 9.89333 206.188 9.616V8.096H204.268C203.447 8.096 202.85 8.22933 202.476 8.496C202.114 8.752 201.932 9.10933 201.932 9.568V9.952C201.932 10.432 202.103 10.7947 202.444 11.04C202.786 11.2853 203.239 11.408 203.804 11.408ZM210.082 0.16H210.994V5.12H211.042C211.244 4.66133 211.554 4.29867 211.97 4.032C212.386 3.75467 212.908 3.616 213.538 3.616C214.594 3.616 215.42 3.98933 216.018 4.736C216.615 5.48267 216.914 6.53867 216.914 7.904C216.914 9.26933 216.615 10.3253 216.018 11.072C215.42 11.8187 214.594 12.192 213.538 12.192C212.908 12.192 212.391 12.0587 211.986 11.792C211.58 11.5147 211.266 11.1467 211.042 10.688H210.994V12H210.082V0.16ZM213.33 11.376C214.151 11.376 214.791 11.1147 215.25 10.592C215.708 10.0693 215.938 9.36533 215.938 8.48V7.328C215.938 6.44267 215.708 5.73867 215.25 5.216C214.791 4.69333 214.151 4.432 213.33 4.432C213.01 4.432 212.706 4.48 212.418 4.576C212.14 4.66133 211.895 4.784 211.682 4.944C211.468 5.104 211.298 5.296 211.17 5.52C211.052 5.744 210.994 5.98933 210.994 6.256V9.504C210.994 9.792 211.052 10.0533 211.17 10.288C211.298 10.512 211.468 10.7093 211.682 10.88C211.895 11.04 212.14 11.1627 212.418 11.248C212.706 11.3333 213.01 11.376 213.33 11.376ZM222.197 12.192C221.653 12.192 221.157 12.096 220.709 11.904C220.272 11.712 219.893 11.4347 219.573 11.072C219.264 10.6987 219.024 10.2453 218.853 9.712C218.693 9.17867 218.613 8.576 218.613 7.904C218.613 7.232 218.693 6.63467 218.853 6.112C219.024 5.57867 219.264 5.13067 219.573 4.768C219.893 4.39467 220.272 4.112 220.709 3.92C221.147 3.71733 221.637 3.616 222.181 3.616C222.704 3.616 223.179 3.71733 223.605 3.92C224.032 4.112 224.395 4.384 224.693 4.736C224.992 5.088 225.221 5.51467 225.381 6.016C225.552 6.50667 225.637 7.05067 225.637 7.648V8.08H219.573V8.48C219.573 8.90667 219.632 9.30133 219.749 9.664C219.877 10.016 220.053 10.32 220.277 10.576C220.512 10.832 220.795 11.0347 221.125 11.184C221.456 11.3227 221.829 11.392 222.245 11.392C223.44 11.392 224.267 10.8427 224.725 9.744L225.397 10.192C225.141 10.8 224.736 11.2853 224.181 11.648C223.637 12.0107 222.976 12.192 222.197 12.192ZM222.181 4.384C221.787 4.384 221.429 4.45867 221.109 4.608C220.789 4.74667 220.512 4.944 220.277 5.2C220.053 5.456 219.877 5.76533 219.749 6.128C219.632 6.48 219.573 6.86933 219.573 7.296V7.376H224.645V7.248C224.645 6.82133 224.587 6.432 224.469 6.08C224.352 5.71733 224.181 5.41333 223.957 5.168C223.744 4.92267 223.483 4.73067 223.173 4.592C222.875 4.45333 222.544 4.384 222.181 4.384ZM227.957 12V3.808H228.869V5.104H228.917C229.098 4.67733 229.381 4.32533 229.765 4.048C230.149 3.76 230.671 3.616 231.333 3.616C232.207 3.616 232.885 3.888 233.365 4.432C233.855 4.96533 234.101 5.73333 234.101 6.736V12H233.189V6.896C233.189 6.064 233.007 5.44533 232.645 5.04C232.293 4.63467 231.775 4.432 231.093 4.432C230.805 4.432 230.527 4.46933 230.261 4.544C229.994 4.61867 229.754 4.73067 229.541 4.88C229.338 5.02933 229.173 5.22133 229.045 5.456C228.927 5.68 228.869 5.94133 228.869 6.24V12H227.957ZM242.092 10.704H242.028C241.954 10.896 241.852 11.0827 241.724 11.264C241.596 11.4453 241.436 11.6053 241.244 11.744C241.052 11.872 240.823 11.9787 240.556 12.064C240.3 12.1493 239.996 12.192 239.644 12.192C238.77 12.192 238.087 11.9253 237.596 11.392C237.106 10.848 236.86 10.0747 236.86 9.072V3.808H237.772V8.896C237.772 9.73867 237.954 10.3627 238.316 10.768C238.679 11.1733 239.202 11.376 239.884 11.376C240.172 11.376 240.444 11.3387 240.7 11.264C240.967 11.1893 241.202 11.0773 241.404 10.928C241.618 10.7787 241.783 10.592 241.9 10.368C242.028 10.1333 242.092 9.86133 242.092 9.552V3.808H243.004V12H242.092V10.704Z" fill="black"/>
</svg>
