<svg width="15" height="17" xmlns="http://www.w3.org/2000/svg" fill="none">

 <g>
  <title>Layer 1</title>
  <path id="svg_1" fill="#6F6F6F" d="m8.90924,15.3491c-0.7318,0.924 -2.13354,0.9257 -2.86732,0.0032l-5.10758,-6.42138c-0.76804,-0.96522 -0.08824,-2.39136 1.1449,-2.40344l1.38769,-0.0138l0.00124,-4.66466c0.00005,-0.24042 0.04748,-0.47848 0.13956,-0.70056c0.09209,-0.22209 0.22704,-0.42385 0.39714,-0.59376c0.17009,-0.16992 0.372,-0.30465 0.59419,-0.3965c0.22218,-0.09185 0.46029,-0.13902 0.70071,-0.13881l4.35828,0.00394c0.48495,0.00057 0.94985,0.1936 1.29265,0.5367c0.3427,0.34311 0.5352,0.80822 0.5353,1.29318l0.0005,4.65949l1.3554,0.00073c1.2385,0.00074 1.9294,1.43009 1.1611,2.40098l-5.09376,6.43469zm-2.18506,-0.5391c0.08989,0.113 0.20415,0.2043 0.33425,0.2669c0.1301,0.0627 0.27267,0.0951 0.41708,0.095c0.1444,-0.0002 0.2869,-0.033 0.41685,-0.0959c0.12996,-0.063 0.24401,-0.1545 0.33363,-0.2677l5.09381,-6.43467c0.3162,-0.40004 0.032,-0.98839 -0.4782,-0.98888l-1.7912,-0.00074c-0.0572,0 -0.1139,-0.01126 -0.1667,-0.03316c-0.0529,-0.0219 -0.101,-0.054 -0.1414,-0.09446c-0.0405,-0.04047 -0.0726,-0.08851 -0.0945,-0.14139c-0.0219,-0.05287 -0.0332,-0.10954 -0.0332,-0.16677l0.0003,-5.09502c-0.0001,-0.25405 -0.101,-0.49769 -0.2806,-0.67738c-0.1796,-0.17969 -0.42318,-0.28074 -0.67723,-0.28094l-4.35829,-0.00394c-0.12592,-0.00009 -0.25062,0.02462 -0.36699,0.07274c-0.11637,0.04811 -0.22211,0.11868 -0.3112,0.20767c-0.08908,0.089 -0.15976,0.19467 -0.208,0.31099c-0.04823,0.11632 -0.07308,0.241 -0.07311,0.36692l-0.00123,5.096c0.00002,0.11482 -0.04528,0.225 -0.12605,0.3066c-0.08077,0.0816 -0.19049,0.12802 -0.3053,0.12918l-1.81903,0.01774c-0.50775,0.00493 -0.78751,0.5923 -0.47152,0.98963l5.10783,6.42158z"/>
  <path id="svg_2" d="m4.65485,0.59515c0,0.04664 4.99067,-0.23321 4.99067,-0.18657c0,0.04664 1.25933,0.74627 1.22202,0.71082c0.03731,0.03545 0.36381,1.4347 0.32649,1.39925c0.03731,0.03545 -0.05597,3.25373 -0.05597,3.30037c0,0.04664 0.41978,1.35261 0.38246,1.31716c0.03731,0.03545 1.43657,-0.01119 1.39925,-0.04664c0.03731,0.03545 1.06343,0.50187 1.06343,0.59515c0,0.09328 -0.27985,0.97948 -0.31716,0.94403c0.03731,0.03545 -1.03545,1.10821 -1.07276,1.07276c0.03731,0.03545 -0.7556,1.24813 -0.79291,1.21269c0.03731,0.03545 -3.78731,4.5597 -3.82463,4.52425c0.03731,0.03545 -1.3153,0.03545 -1.35261,0c0.03731,0.03545 -4.95336,-6.35448 -4.99067,-6.38993c0.03731,0.03545 -0.56903,-0.94403 -0.60634,-0.97948c0.03731,0.03545 0.55037,-0.99067 0.51306,-1.02612c0.03731,0.03545 1.76306,0.03545 1.72575,0c0.03731,0.03545 1.06343,-0.2444 1.02612,-0.27985c0.03731,0.03545 -0.33582,0.03545 -0.37313,0c0.03731,0.03545 0.03731,-1.17724 0,-1.21269c0.03731,0.03545 0.08395,-4.30224 0.04664,-4.33769" opacity="NaN" stroke="null" fill="#6F6F6F"/>
 </g>
</svg>