<svg width="15" height="17" xmlns="http://www.w3.org/2000/svg" fill="none">

 <g>
  <title>Layer 1</title>
  <path id="svg_1" fill="#6F6F6F" d="m6.09076,1.53713c0.7318,-0.92406 2.13354,-0.92578 2.86732,-0.0032l5.10762,6.42133c0.768,0.96522 0.0882,2.39134 -1.1449,2.40344l-1.3877,0.0138l-0.0013,4.6647c0,0.2404 -0.0474,0.4784 -0.1395,0.7005c-0.0921,0.2221 -0.2271,0.4239 -0.3972,0.5938c-0.1701,0.1699 -0.372,0.3046 -0.5942,0.3965c-0.2221,0.0918 -0.46025,0.139 -0.70067,0.1388l-4.35828,-0.004c-0.48496,-0.0005 -0.94987,-0.1935 -1.2926,-0.5366c-0.34273,-0.3432 -0.53527,-0.8083 -0.53531,-1.2932l-0.00049,-4.6595l-1.3554,-0.0008c-1.23857,-0.0007 -1.92946,-1.43003 -1.16118,-2.40092l5.09379,-6.43465zm2.18506,0.53906c-0.08989,-0.11302 -0.20415,-0.20426 -0.33425,-0.26693c-0.1301,-0.06266 -0.27267,-0.09512 -0.41708,-0.09495c-0.1444,0.00016 -0.2869,0.03295 -0.41685,0.09591c-0.12996,0.06296 -0.24401,0.15447 -0.33363,0.26769l-5.09379,6.43465c-0.31623,0.40003 -0.03204,0.98839 0.47817,0.98888l1.79119,0.00074c0.05722,-0.00001 0.11389,0.01126 0.16677,0.03315c0.05287,0.0219 0.10092,0.054 0.14138,0.09447c0.04047,0.04046 0.07257,0.08851 0.09447,0.14138c0.02189,0.05288 0.03316,0.10955 0.03315,0.16678l-0.00024,5.09504c0.00007,0.254 0.10099,0.4977 0.28059,0.6774c0.17959,0.1796 0.42318,0.2807 0.67723,0.2809l4.35829,0.0039c0.12592,0.0001 0.25062,-0.0246 0.36698,-0.0727c0.1164,-0.0481 0.2221,-0.1187 0.3112,-0.2077c0.0891,-0.089 0.1598,-0.1946 0.208,-0.311c0.0482,-0.1163 0.0731,-0.241 0.0731,-0.3669l0.0013,-5.09599c-0.0001,-0.11481 0.0452,-0.225 0.126,-0.3066c0.0808,-0.0816 0.1905,-0.12802 0.3053,-0.12918l1.819,-0.01774c0.5078,-0.00493 0.7875,-0.5923 0.4715,-0.98962l-5.10778,-6.42158z"/>
  <path id="svg_2" opacity="NaN" stroke="#000" fill="#fff"/>
  <path id="svg_11" d="m1.27235,8.54947l6.02728,-7.37541" opacity="NaN" stroke="null" fill="#6F6F6F"/>
  <path stroke="null" id="svg_12" d="m1.27235,8.34529l6.25341,-7.32436l6.61408,7.35067" opacity="NaN" fill="#6F6F6F"/>
  <path id="svg_13" d="m2.40044,7.28434c-1.31131,1.45702 -1.31131,1.69985 -1.33197,1.65203c0.02065,0.04783 0.21492,0.48493 0.21492,0.58206c0,0.09713 0.53424,0.24284 0.51359,0.19501c0.02065,0.04783 0.79773,0.04783 0.77708,0c0.02065,0.04783 0.94343,0.04783 0.92278,0c0.02065,0.04783 0.45776,0.09639 0.4371,0.04857c0.02065,0.04783 0.16635,0.48493 0.1457,0.4371c0.02065,0.04783 -0.17362,0.72777 -0.19427,0.67994c0.02065,0.04783 0.06922,0.63063 0.04857,0.58281c0.02065,0.04783 0.16635,1.01917 0.1457,0.97134c0.02065,0.04783 0.02065,0.92203 0.02065,1.1163c0,0.19427 -0.04857,0.63137 -0.04857,0.82564c0,0.19427 0,0.82564 0,0.92278c0,0.09713 0.24284,0.63137 0.33997,0.67994c0.09713,0.04857 0.87421,0.2914 0.92278,0.2914c0.04857,0 1.60272,0.09713 1.58207,0.04931c0.02065,0.04783 1.38053,-0.00074 1.35988,-0.04857c0.02065,0.04783 1.2834,-0.04931 1.26275,-0.09713c0.02065,0.04783 1.04056,-0.00074 1.01991,-0.04857c0.02065,0.04783 0.40919,-0.43785 0.38854,-0.48567c0.02065,0.04783 0.21492,-0.72925 0.19427,-0.77708c0.02065,0.04783 0.02065,-1.11779 0,-1.16561c0.02065,0.04783 0.02065,-0.77782 0.02065,-0.82638c0,-0.04857 0,-0.82564 -0.02065,-0.87347c0.02065,0.04783 0.06922,-1.11779 0.04857,-1.16561c0.02065,0.04783 0.06922,-0.48641 0.04857,-0.53424" opacity="NaN" stroke="null" fill="#6F6F6F"/>
  <path id="svg_14" d="m11.67678,9.8584l1.14496,-0.04783l0.77708,-0.19427l0.24284,-0.4371l0,-0.58281l-0.33997,-0.38854l-1.40845,-0.58281c0.02065,0.04783 -4.20469,-0.43785 -4.30183,-0.48641c-0.09713,-0.04857 -3.69111,0.38854 -3.71176,0.34071c0.02065,0.04783 0.60346,1.99051 0.58281,1.94269c0.02065,0.04783 0.84629,1.65054 0.82564,1.60272c0.02065,0.04783 5.21734,0.09639 5.19669,0.04857c0.02065,0.04783 -3.96186,-3.44901 -3.96186,-3.44901c0,0 0.82564,2.37979 0.80499,2.33197c0.02065,0.04783 0.70059,1.60198 0.74916,1.65054" opacity="NaN" stroke="null" fill="#6F6F6F"/>
 </g>
</svg>